<svg width="102" height="108" viewBox="0 0 102 108" fill="none" xmlns="http://www.w3.org/2000/svg">
<g id="Group 17">
<g id="Group 16" opacity="0.5">
<path id="Path" d="M48.7304 15.593C25.8219 15.5886 7.24564 34.2241 7.23536 57.2204C7.22507 80.2167 25.7846 98.8689 48.6932 98.8851C71.6017 98.9013 90.1875 80.2754 90.2095 57.2792C90.2222 46.2277 85.8577 35.6246 78.0775 27.8055C70.2973 19.9865 59.7397 15.593 48.7304 15.593Z" stroke="#3A4374" stroke-width="1.04545" stroke-linecap="round" stroke-linejoin="round"/>
<ellipse id="Oval" cx="70.4762" cy="43.691" rx="1.91663" ry="2.86191" fill="#231F20"/>
<path id="Path_2" d="M0 44.9016L97.4288 23.2569L78.2625 17.6453C78.2625 17.6453 67.8807 0.3696 65.1096 0.00885439C62.3384 -0.351891 11.9789 10.4304 11.9789 10.4304L8.78456 34.7687L0 44.9016Z" fill="#3A4374"/>
<path id="Path_3" d="M20.2841 103.503L9.27148 86.0266L57.4109 77.7615L60.7171 94.5081L65.6045 79.0842L90.2332 83.9663L85.226 103.503H20.2841Z" fill="#3A4374"/>
<path id="Path_4" d="M81.9699 65.6068L86.4077 64.9903L88.7003 81.6184C88.86 82.7762 88.0544 83.8447 86.901 84.005L86.64 84.0412C85.4866 84.2015 84.4222 83.3928 84.2625 82.235L81.9699 65.6068Z" fill="white"/>
<path id="Shape" fill-rule="evenodd" clip-rule="evenodd" d="M83.8686 82.2989C84.0433 83.5422 85.1014 84.4678 86.3522 84.4714C86.4618 84.4706 86.5711 84.4626 86.6796 84.4473L86.9352 84.4073C87.5957 84.3198 88.1939 83.9705 88.596 83.4372C88.9982 82.904 89.1708 82.2313 89.0754 81.5694L86.7994 64.943C86.7883 64.8373 86.7332 64.7412 86.6477 64.6785C86.5637 64.6134 86.4574 64.5846 86.3522 64.5983L81.92 65.2156C81.7019 65.2447 81.5483 65.4455 81.5766 65.6645L83.8686 82.2989ZM84.6592 82.1867L82.4231 65.9531L86.0647 65.4882L88.3008 81.7217C88.4288 82.6576 87.7791 83.5212 86.8473 83.6537H86.5838C85.65 83.7774 84.7913 83.1228 84.6592 82.1867Z" fill="#3A4374"/>
<path id="Rectangle" d="M78.5617 50.93L85.7207 49.9354L87.963 66.1983L80.804 67.1929L78.5617 50.93Z" fill="white"/>
<path id="Shape_2" fill-rule="evenodd" clip-rule="evenodd" d="M80.5624 67.5244C80.6325 67.5745 80.716 67.6024 80.802 67.6045L80.8499 67.5965L88.0373 66.6025C88.2554 66.5734 88.409 66.3726 88.3807 66.1535L86.1366 49.8879C86.1248 49.7818 86.0704 49.6851 85.9861 49.6201C85.9017 49.555 85.7946 49.5273 85.6894 49.5432L78.5021 50.5373C78.3985 50.5535 78.3045 50.6078 78.2385 50.6896C78.1757 50.7747 78.1498 50.8816 78.1666 50.9862L80.4107 67.2598C80.4198 67.3662 80.4754 67.4631 80.5624 67.5244ZM81.1454 66.7468L79.0132 51.2748L85.4019 50.393L87.5342 65.8649L81.1454 66.7468Z" fill="#3A4374"/>
<path id="Rectangle_2" d="M82.8021 81.6751C82.5573 79.8994 83.7972 78.2611 85.5727 78.0144L86.2975 77.9137C88.0756 77.6667 89.7169 78.9089 89.9621 80.6872L92.9747 102.537C93.2196 104.313 91.9796 105.951 90.2041 106.198L89.4793 106.299C87.7012 106.546 86.0599 105.304 85.8148 103.525L82.8021 81.6751Z" fill="white"/>
<path id="Shape_3" fill-rule="evenodd" clip-rule="evenodd" d="M85.5059 104.272C85.7089 105.737 86.9556 106.828 88.4287 106.83L88.828 106.838L90.9363 106.541C92.5459 106.313 93.6699 104.823 93.4519 103.206L90.2575 79.9582C90.0347 78.34 88.5474 77.2095 86.9354 77.433L84.8271 77.7215C84.0525 77.8313 83.3523 78.2432 82.8785 78.8679C82.4053 79.4949 82.2012 80.2857 82.3115 81.0645L85.5059 104.272ZM87.0472 78.2025C87.1455 78.1946 87.2443 78.1946 87.3426 78.2025L87.3187 78.2106C88.3909 78.2164 89.296 79.0122 89.443 80.0784L92.6373 103.326C92.7795 104.496 91.963 105.565 90.8006 105.731L88.6923 106.028C87.528 106.166 86.4657 105.349 86.2965 104.184L83.1021 80.9362C83.0168 80.3673 83.1668 79.7881 83.5174 79.3329C83.8594 78.8721 84.3717 78.5688 84.9389 78.4911L87.0472 78.2025Z" fill="#3A4374"/>
<ellipse id="Oval_2" cx="81.5687" cy="46.2885" rx="19.1903" ry="19.2638" fill="white"/>
<path id="Shape_4" fill-rule="evenodd" clip-rule="evenodd" d="M61.9845 47.1749C62.4607 57.6777 71.0794 65.9484 81.5529 65.9531C82.4664 65.9527 83.3788 65.8911 84.2841 65.7687C94.9829 64.2494 102.445 54.3329 100.975 43.5869C99.5407 33.1723 90.2025 25.7302 79.7727 26.69C69.3429 27.6497 61.5083 36.6721 61.9845 47.1749ZM78.9574 27.5939C79.8176 27.4756 80.6847 27.4166 81.5529 27.4175H81.5848C90.9448 27.4582 98.8543 34.3939 100.152 43.6991C101.195 51.26 97.5977 58.707 91.0378 62.5672C84.478 66.4273 76.2475 65.9404 70.1847 61.3335C64.122 56.7266 61.4209 48.907 63.3413 41.5214C65.2616 34.1358 71.4251 28.6388 78.9574 27.5939Z" fill="#3A4374"/>
<ellipse id="Oval_3" cx="81.5686" cy="46.2885" rx="15.5886" ry="15.6483" fill="white"/>
<path id="Shape_5" fill-rule="evenodd" clip-rule="evenodd" d="M65.598 46.8575C65.8949 55.492 72.954 62.3377 81.5607 62.3376C82.2954 62.3385 83.0292 62.2876 83.7568 62.1853C92.2818 60.9972 98.3359 53.2421 97.447 44.6486C96.5581 36.0551 89.0458 29.714 80.4596 30.3095C71.8733 30.905 65.3012 38.2229 65.598 46.8575ZM79.4444 31.2173C80.1458 31.1217 80.8528 31.0734 81.5607 31.073C89.7341 31.0905 96.4251 37.6039 96.6934 45.8043C96.9618 54.0047 90.7113 60.9449 82.5566 61.5009C74.4019 62.0569 67.2738 56.0289 66.4351 47.8674C65.5963 39.706 71.3484 32.3441 79.4444 31.2173Z" fill="#3A4374"/>
<path id="Path_5" d="M99.8964 89.7141C98.8417 88.3705 97.5059 87.2758 95.9833 86.5075C91.4074 84.1025 86.1606 84.1827 81.345 85.7058C79.636 86.251 76.3219 87.0286 76.1462 89.3053C76.1592 90.2377 76.7787 91.0517 77.6715 91.3094C78.5454 91.5369 79.4579 91.5724 80.3468 91.4136C79.0802 91.3795 77.8287 91.6956 76.7292 92.3275C75.699 93.057 75.132 94.6523 75.9785 95.6223C76.3526 96.0256 76.84 96.3052 77.376 96.424C78.5413 96.7457 79.7736 96.729 80.9298 96.3759C79.6787 96.6165 78.4594 97.0011 77.2962 97.5223C76.5934 97.8349 75.8108 98.388 75.8906 99.1256C75.9705 99.8631 76.6892 100.2 77.3441 100.424C78.7218 100.899 80.1611 101.169 81.6166 101.226C80.3603 101.455 79.1724 101.967 78.1427 102.725C76.5455 104.072 76.5455 106.629 78.7097 107.359C79.4039 107.562 80.1276 107.646 80.8499 107.607C87.2387 107.607 94.8892 106.805 99.2176 101.466C101.348 98.968 102.113 95.5754 101.262 92.3997C100.966 91.4314 100.504 90.5226 99.8964 89.7141Z" fill="white"/>
<path id="Shape_6" fill-rule="evenodd" clip-rule="evenodd" d="M78.5819 107.719C79.3021 107.931 80.0525 108.021 80.802 107.984L80.826 108C87.1509 107.992 94.9931 107.27 99.5211 101.715C101.742 99.114 102.535 95.5769 101.637 92.2715C101.319 91.2652 100.83 90.3214 100.192 89.4817C99.1056 88.0781 97.7228 86.9337 96.1431 86.1308C91.8466 83.9343 86.536 83.6377 81.2013 85.3292L80.6902 85.4815C80.6725 85.4869 80.6546 85.4924 80.6367 85.498C78.7359 86.083 75.9049 86.9543 75.723 89.2733C75.714 90.2815 76.3184 91.1932 77.2483 91.5741C76.9662 91.6866 76.6982 91.8319 76.4497 92.007C75.7473 92.515 75.2805 93.2874 75.156 94.1474C75.0623 94.7655 75.2334 95.3945 75.6271 95.879C76.0516 96.3433 76.61 96.6628 77.2243 96.7928C77.3662 96.8351 77.5101 96.8699 77.6556 96.8971L77.0886 97.1376C75.9865 97.6586 75.3716 98.4924 75.4914 99.1818C75.6112 99.8712 76.1462 100.416 77.2084 100.785C77.9885 101.057 78.7899 101.264 79.6041 101.402C78.9772 101.637 78.394 101.976 77.8792 102.404C76.9498 103.19 76.4958 104.406 76.6813 105.611C76.8789 106.612 77.6094 107.422 78.5819 107.719ZM77.4559 97.835C78.2906 97.4582 79.1563 97.1551 80.0434 96.9291C80.3784 96.8898 80.7096 96.8228 81.0336 96.7287C81.2348 96.6634 81.3527 96.4545 81.3052 96.2477C81.2538 96.041 81.0504 95.9107 80.842 95.9511C80.5225 96.0152 80.1951 96.0874 79.8757 96.1676C79.0744 96.2731 78.2602 96.2186 77.4799 96.0072C77.024 95.9134 76.6067 95.6844 76.282 95.3499C76.0354 95.035 75.9312 94.631 75.9945 94.2356C76.0874 93.592 76.436 93.0136 76.9608 92.6322C77.6552 92.1912 78.4487 91.9321 79.2687 91.8787C79.4537 91.8748 79.6368 91.8542 79.8171 91.8338C80.0105 91.812 80.2008 91.7905 80.3868 91.7905C80.6023 91.7654 80.7604 91.575 80.7461 91.3576C80.7214 91.1432 80.5378 90.9833 80.3229 90.9889C80.2998 90.9904 80.2766 90.992 80.2533 90.9936C79.9231 91.0161 79.5795 91.0396 79.2288 91.077C78.7455 91.1085 78.2606 91.0487 77.7993 90.9007C77.0774 90.6966 76.5682 90.0496 76.5375 89.2974C76.6811 87.5033 79.2479 86.7255 80.941 86.2124L80.9458 86.211L81.4649 86.0506C86.5999 84.4473 91.6869 84.7279 95.7997 86.8523C97.2752 87.5988 98.5658 88.667 99.577 89.9788C100.161 90.7433 100.609 91.6029 100.903 92.52C101.717 95.5697 100.976 98.8263 98.9222 101.218C94.6098 106.517 86.9992 107.206 80.842 107.206C80.1659 107.251 79.4873 107.175 78.8375 106.982C78.1361 106.78 77.606 106.201 77.4639 105.483C77.3222 104.557 77.6773 103.625 78.3983 103.03C79.3886 102.318 80.5228 101.834 81.7204 101.611C81.9124 101.56 82.0383 101.376 82.0159 101.178C81.9957 100.98 81.831 100.828 81.6326 100.825C80.214 100.764 78.8121 100.494 77.4719 100.024C76.9608 99.8552 76.3539 99.6467 76.29 99.0535C76.2261 98.4603 77.0806 98.0033 77.4559 97.835Z" fill="#3A4374"/>
<path id="Path_6" d="M55.3669 46.593C55.3669 46.593 65.0938 61.2633 59.2081 61.4718C53.3225 61.6802 52.8193 60.133 52.8193 60.133" fill="white"/>
<path id="Path_7" d="M58.1538 61.9367C53.2185 61.9367 52.5077 60.5819 52.4119 60.3334C52.3429 60.1145 52.4596 59.8803 52.6754 59.8043C52.8914 59.7356 53.1223 59.8533 53.1945 60.0689C53.1945 60.0689 53.9133 61.3114 59.192 61.119C59.7173 61.1677 60.2226 60.9046 60.4857 60.4456C61.7475 57.9846 56.9719 49.8237 55.0233 46.8896C54.9149 46.7001 54.9707 46.4586 55.1512 46.3364C55.3318 46.2142 55.5757 46.2527 55.7101 46.4247C56.4528 47.547 62.8975 57.4875 61.2204 60.8545C60.8289 61.5874 60.0513 62.0277 59.2239 61.9848L58.1538 61.9367Z" fill="#3A4374"/>
<ellipse id="Oval_4" cx="82.4551" cy="45.7994" rx="3.5298" ry="6.03647" fill="#C0C5DC"/>
<ellipse id="Oval_5" cx="39.2591" cy="45.7996" rx="2.69127" ry="4.88209" fill="#3A4374"/>
</g>
</g>
</svg>
